# xmcd
#
# Track frame offsets: 
#        150
#        13003
#        24881
#        37082
#        48816
#        62141
#        75217
#        88956
#        103014
#        116135
#        125017
#        138125
#
# Disc length: 1966 seconds
#
# Revision: 0
# Processed by: cddbd v1.5.2PL0 Copyright (c) Steve Scherf et al.
# Submitted via: ExactAudioCopy v1.0b1
#
DISCID=9607ac0c
DTITLE=Merle Haggard - Pride In What I Am
DYEAR=1900
DGENRE=Country
TTITLE0=I Take A Lot Of Pride In What I Am
TTITLE1=Who'll Buy The Wine
TTITLE2=The Day The Rains Came
TTITLE3=It Meant Goodbye To Me When She Said Hello To Him
TTITLE4=I Can't Hold Myself In Line
TTITLE5=I'm Bringin' Home Good News
TTITLE6=Keep Me From Cryin' Today
TTITLE7=I Just Want To Look At You One More Time
TTITLE8=Somewhere On Skid Row
TTITLE9=I'm Free
TTITLE10=California Blues
TTITLE11=I Think We're Livin' In The Good Old Days
EXTD=
EXTT0=
EXTT1=
EXTT2=
EXTT3=
EXTT4=
EXTT5=
EXTT6=
EXTT7=
EXTT8=
EXTT9=
EXTT10=
EXTT11=
PLAYORDER=
